inDegrees=no
num_controls=7
num_derivatives=13
num_iterations=89
num_multipliers=7
num_parameters=0
num_slacks=7
num_states=26
objective=0.423211
objective_accelerations=0.062642
objective_balance=0.001384
objective_effort=0.015607
objective_height=0.337646
objective_ligament=0.005932
solver_duration=1340.044261
status=Solve_Succeeded
success=true
DataType=double
version=3
OpenSimVersion=4.5
endheader
time	/jointset/ground_pelvis/pelvis_tilt/value	/jointset/ground_pelvis/pelvis_tx/value	/jointset/ground_pelvis/pelvis_ty/value	/jointset/hip_l/hip_flexion_l/value	/jointset/hip_l/hip_adduction_l/value	/jointset/hip_l/hip_rotation_l/value	/jointset/back/lumbar_extension/value	/jointset/patellofemoral_l/patellar_flexion_l/value	/jointset/knee_l/knee_flexion_l/value	/jointset/knee_l/knee_adduction_l/value	/jointset/knee_l/knee_rotation_l/value	/jointset/ankle_l/ankle_angle_l/value	/jointset/subtalar_l/subtalar_angle_l/value	/jointset/ground_pelvis/pelvis_tilt/speed	/jointset/ground_pelvis/pelvis_tx/speed	/jointset/ground_pelvis/pelvis_ty/speed	/jointset/hip_l/hip_flexion_l/speed	/jointset/hip_l/hip_adduction_l/speed	/jointset/hip_l/hip_rotation_l/speed	/jointset/back/lumbar_extension/speed	/jointset/patellofemoral_l/patellar_flexion_l/speed	/jointset/knee_l/knee_flexion_l/speed	/jointset/knee_l/knee_adduction_l/speed	/jointset/knee_l/knee_rotation_l/speed	/jointset/ankle_l/ankle_angle_l/speed	/jointset/subtalar_l/subtalar_angle_l/speed	/forceset/tau_hip_flexion_l	/forceset/tau_hip_adduction_l	/forceset/tau_hip_rotation_l	/forceset/tau_knee_flexion_l	/forceset/tau_ankle_angle_l	/forceset/tau_subtalar_angle_l	/forceset/tau_lumbar_extension	lambda_cid13_p0	lambda_cid13_p1	lambda_cid13_p2	lambda_cid13_p3	lambda_cid13_p4	lambda_cid13_p5	lambda_cid14_p0	/jointset/ground_pelvis/pelvis_tilt/accel	/jointset/ground_pelvis/pelvis_tx/accel	/jointset/ground_pelvis/pelvis_ty/accel	/jointset/hip_l/hip_flexion_l/accel	/jointset/hip_l/hip_adduction_l/accel	/jointset/hip_l/hip_rotation_l/accel	/jointset/back/lumbar_extension/accel	/jointset/patellofemoral_l/patellar_flexion_l/accel	/jointset/knee_l/knee_flexion_l/accel	/jointset/knee_l/knee_adduction_l/accel	/jointset/knee_l/knee_rotation_l/accel	/jointset/ankle_l/ankle_angle_l/accel	/jointset/subtalar_l/subtalar_angle_l/accel	gamma_cid13_p0	gamma_cid13_p1	gamma_cid13_p2	gamma_cid13_p3	gamma_cid13_p4	gamma_cid13_p5	gamma_cid14_p0
0	0.0487790665652908	0.1076980521561627	0.9030813577454944	0.1266922784136757	-0.3683025145789717	-0.2253406965480611	-0.2144969558742783	0.2051545070141877	0.2051545070141877	-0.1708630108728367	-0.1596778481656508	0.09024313228550125	0.08091291986009183	0	0	0	0	0	0	0	0	0	0	0	0	0	0.1156447644072734	-0.06636307669587913	-0.009177538064419047	-0.2462634105567993	0.1777593124124291	-0.07748988489426284	-0.049505027954364	26.82951041952364	29.82490323462385	-6.028178893155385	-17.24801659777553	-437.9256286507967	-56.95973921469346	-26.20259269723088	-3.590308075032606	-1.224905914727598	-0.9075878024455928	12.41623645257619	-0.0611428759637539	3.406352947903262	-3.775479380454003	11.45275091934219	11.45275091934218	2.684949876378431	-0.9815499582597059	3.723018217090207	1.015382187168577	1.083248742769724e-08	7.308909473497691e-07	-1.82233634971863e-07	6.285248069150157e-08	4.331823965855162e-08	3.576559161099241e-07	9.637099172091595e-08
0.01	0.04860782394930528	0.1076371993818634	0.9030373519486645	0.127295753873585	-0.3683046326535055	-0.2251637359116222	-0.2146903030158339	0.2057124911889321	0.2057124911889321	-0.1707310757220316	-0.1597148258785636	0.09042429181949721	0.08096311744439982	-0.03412716665818879	-0.01216109061913835	-0.008776003966126445	0.1201989069745888	-0.0004273862402852896	0.03520580559477211	-0.03839012403399591	0.1110153677145573	0.1110153677145574	0.02622171128216342	-0.007351606790157953	0.03595972412358569	0.009957464883376276	0.11187395446933	-0.07721590357920279	-0.00814992347522883	-0.2407253987894674	0.1659928564362849	-0.06459871967428688	-0.04664185924067586	23.75021006449145	24.37888713038823	-4.71840437661962	-15.30627671701603	-438.6712081495098	-67.90457553453753	-26.20259467733136	-3.305717585924744	-1.210278428902129	-0.8588247200710456	11.74728950054136	-0.0341820073855519	3.549795555597652	-3.828883273303788	10.83869033816889	10.83869033816889	2.566085665423092	-0.6054221891234876	3.491642051166894	0.9735275526645671	2.107035286144372e-09	9.93204019734534e-07	-1.559012046527966e-07	1.001794354436104e-07	-1.764264131178217e-07	3.606074540523073e-07	1.337476915781857e-07
0.02	0.04809895034179533	0.1074550221426937	0.9029063425068984	0.1290863327393683	-0.3683111536923073	-0.2246402969811689	-0.2152591722694158	0.2073631811689532	0.2073631811689532	-0.1703418626761474	-0.1598240108893241	0.09095688710296385	0.08111040946029005	-0.06752619830488671	-0.02426489297408364	-0.01740072898724835	0.2374206811748232	-0.0008805928535559883	0.06929565880288292	-0.07510442240524803	0.21854116105537	0.2185411610553701	0.05145557901583867	-0.0144414595695018	0.07028714989413717	0.01941888631644911	0.1081031445313862	-0.08806873046252645	-0.00712230888603832	-0.2351873870221358	0.1542264004601405	-0.05170755445431099	-0.04377869052698787	20.72267108159512	18.93599738205103	-3.423055150530145	-13.41471570858888	-438.4900467415076	-78.6549631850386	-26.20234590831761	-3.444681072734433	-1.213448261888985	-0.877332013444684	11.82080989770532	-0.06630695056083571	3.183162470571003	-3.440314247905245	10.75483604459325	10.75483604459326	2.487381166680799	-0.9291991560968853	3.396558546483368	0.9161734971078882	-6.618416855408492e-09	1.255517092119299e-06	-1.295687743337302e-07	1.375063901957193e-07	-3.96171065894195e-07	3.635589919946906e-07	1.711243914354554e-07
0.03	0.04725915229264288	0.1071525268238165	0.9026894575845682	0.1320352657363272	-0.3683221499158495	-0.2237824710259386	-0.2161860044766876	0.2100733599959007	0.2100733599959007	-0.1697046472639712	-0.160003856395559	0.091825867168669	0.08135046706971411	-0.1003159994579965	-0.03617918244626911	-0.02598079682967714	0.3518723589251974	-0.001312230252011619	0.1021362093647969	-0.1099580417500673	0.3229974775216466	0.3229974775216472	0.07583824297539424	-0.02142844156789207	0.1033398592083187	0.02855521140020301	0.1047269354416891	-0.08277606378134998	-0.00637989313296264	-0.2317348881774153	0.1503923564647824	-0.05423302665421557	-0.04116390725233907	19.35692674966903	20.18678212083178	-3.525190001580929	-12.60577096659674	-438.2868705529126	-75.35260940199692	-26.20145319700149	-3.178507568573506	-1.172143384525938	-0.8491054943461068	11.183315479974	-0.0307988293643929	3.31456061689659	-3.462289182914962	10.21642604987754	10.21642604987762	2.391520476837373	-0.5686179865041715	3.234315553851909	0.9065656621946798	-1.342567473188149e-08	1.371032058689648e-06	-1.344151667391942e-07	1.597667609243999e-07	-5.280023183420605e-07	3.823155751468154e-07	1.901101733773586e-07
0.04	0.04609498064556451	0.1067325437912889	0.9023866197188729	0.1361139092640439	-0.3683373038523516	-0.2226002277115101	-0.2174522535584365	0.2138131813079575	0.2138131813079574	-0.1688280429189507	-0.1602506057747366	0.09302031201350924	0.08168072865961283	-0.1324009178900754	-0.04776243570415904	-0.03459131766027173	0.4633627873263929	-0.001712135445526074	0.1341791306425107	-0.1429877973006725	0.4244696580772303	0.4244696580772313	0.09933336558472729	-0.0278222341580456	0.1353801057211548	0.03745968241137848	0.1013507263519919	-0.07748339710017342	-0.005637477379886738	-0.2282823893326948	0.1465583124694244	-0.05675849885412002	-0.03854912397769042	18.03777869133618	21.44464087194658	-3.645855038093568	-11.83600056147208	-437.2313081129548	-71.85816138342604	-26.19900734120961	-3.303704528528236	-1.147241019029881	-0.8834226110778547	11.22856002786958	-0.05996050957261647	3.02363661373097	-3.07554148906242	10.15800886245467	10.15800886245465	2.309872896636296	-0.8105612744495666	3.194065986214288	0.8698026825922041	-2.019338221113635e-08	1.48352026019166e-06	-1.399044214688752e-07	1.817164804361026e-07	-6.580209233604722e-07	4.013980355197596e-07	2.087167611354398e-07
0.05	0.04461338218755121	0.1061981933088072	0.9019972780940969	0.1412932458791617	-0.3683561825456421	-0.2211030204332345	-0.2190399023543783	0.2185533611170286	0.2185533611170286	-0.1677207162940339	-0.1605596720792239	0.09452998358282513	0.0820990143003104	-0.1637446515239492	-0.05906879522204051	-0.04329544778327676	0.5719506758323972	-0.002042096557568132	0.1651619477619284	-0.1743293052671418	0.5230234455170858	0.5230234455170886	0.1219781368241919	-0.03381846269875774	0.1663488582544165	0.04616764574602115	0.09738376900212233	-0.07573298025358559	-0.004627595350900721	-0.2243621458208923	0.1405041631417059	-0.05533167886331514	-0.03563948622404334	16.22136200908092	21.0054099654429	-3.418651311338062	-10.71714426100956	-436.3483892011823	-71.82728517005414	-26.19396610563476	-3.023572393183526	-1.116467061977627	-0.8668069410020388	10.59082950284302	-0.01648663333313988	3.120614586072386	-3.131556957357534	9.622593058056783	9.622593058056962	2.218943639983164	-0.4683254126887419	3.0175236024527	0.8666063298181333	-2.163957553759057e-08	1.521590092473704e-06	-1.828423611895008e-07	1.933741823857482e-07	-7.266415540317198e-07	4.44933347883369e-07	2.208081838777843e-07
0.06	0.04282357347072586	0.1055519525023846	0.9015203154224727	0.1475418466275149	-0.3683777553943158	-0.2192989829187596	-0.2209345865313685	0.2242627846751594	0.2242627846751595	-0.1663915090762462	-0.1609235350228796	0.09634319142058775	0.08260344220853795	-0.1940429696524856	-0.07014050049233557	-0.05211552702989076	0.6772156139734872	-0.002250966522135765	0.195545177882355	-0.204394873510345	0.618318407889173	0.6183184078891739	0.1437094841589214	-0.03878156199173801	0.1960873594105021	0.05468813591737722	0.09341681165225257	-0.07398256340699769	-0.003617713321914669	-0.22044190230909	0.1344500138139874	-0.05390485887251022	-0.03272984847039643	14.44714217372977	20.5706733688563	-3.20573897527997	-9.630321522146582	-434.7025398911462	-71.62323231977227	-26.18483411100619	-3.094621427460747	-1.100310169512594	-0.90661243579965	10.56396995488666	-0.03574228007773159	2.903719213932776	-2.820353544409197	9.506243848901024	9.506243848900278	2.127188115689278	-0.6039354249031905	2.948015710779105	0.8323080499348857	-2.286170511024265e-08	1.556526519735961e-06	-2.273570876465872e-07	2.045985362275177e-07	-7.926770068357184e-07	4.894982540150064e-07	2.32625283882624e-07
0.07000000000000001	0.04073475961450326	0.1047962213908892	0.900954245204009	0.1548286147961571	-0.3684007619952306	-0.2171967350387506	-0.2231222292338709	0.2309106284058809	0.230910628405881	-0.1648490518279869	-0.1613348039178102	0.09844821450182771	0.08319242663474412	-0.2235963858895388	-0.08095791313446503	-0.061138611009659	0.7796540332273276	-0.002327456446048241	0.2247159925887583	-0.232865048962491	0.7107593530496753	0.7107593530496744	0.1646360063286267	-0.04338688345194443	0.2247335854185365	0.06309057945466605	0.08933071070352658	-0.0714081881045871	-0.002589705256304344	-0.2171047688952955	0.1292970499189978	-0.05303365859587925	-0.02974746092126507	12.92006538973207	20.37279312010966	-3.074932311794995	-8.776330215913163	-433.2877962052801	-70.89689766568151	-26.17008526698362	-2.86716734383332	-1.065244454964229	-0.9063298669170389	10.01118792519359	0.009642860423572295	2.895585368793588	-2.820056841470066	9.039325400513569	9.039325400513755	2.053729096099685	-0.3761016598319945	2.795422898523019	0.8412700184173628	-2.078244472051597e-08	1.390659243421108e-06	-3.070088012303625e-07	1.937099705441558e-07	-7.780902453969212e-07	5.248516965334025e-07	2.221544996739557e-07
